<?xml version="1.0" encoding="UTF-8" standalone="no"?>
<!DOCTYPE svg PUBLIC "-//W3C//DTD SVG 1.1//EN"
 "http://www.w3.org/Graphics/SVG/1.1/DTD/svg11.dtd">
<!-- Generated by graphviz version 2.44.1 (20200629.0846)
 -->
<!-- Title: dependencies Pages: 1 -->
<svg width="1667pt" height="211pt"
 viewBox="0.00 0.00 1667.00 211.00" xmlns="http://www.w3.org/2000/svg" xmlns:xlink="http://www.w3.org/1999/xlink">
<g id="graph0" class="graph" transform="scale(1 1) rotate(0) translate(4 207)">
<title>dependencies</title>
<polygon fill="white" stroke="transparent" points="-4,4 -4,-207 1663,-207 1663,4 -4,4"/>
<text text-anchor="start" x="808.51" y="-42.4" font-family="sans-serif" font-weight="bold" font-size="14.00">Legend</text>
<polygon fill="#ffffb3" stroke="transparent" points="595.5,-10 595.5,-30 615.5,-30 615.5,-10 595.5,-10"/>
<text text-anchor="start" x="619.13" y="-15.4" font-family="sans-serif" font-size="14.00"> &#160;Declarations</text>
<polygon fill="#8dd3c7" stroke="transparent" points="708.5,-10 708.5,-30 728.5,-30 728.5,-10 708.5,-10"/>
<text text-anchor="start" x="732.23" y="-15.4" font-family="sans-serif" font-size="14.00"> &#160;Module</text>
<polygon fill="#80b1d3" stroke="transparent" points="794.5,-10 794.5,-30 814.5,-30 814.5,-10 794.5,-10"/>
<text text-anchor="start" x="818.28" y="-15.4" font-family="sans-serif" font-size="14.00"> &#160;Bootstrap</text>
<polygon fill="#fdb462" stroke="transparent" points="891.5,-10 891.5,-30 911.5,-30 911.5,-10 891.5,-10"/>
<text text-anchor="start" x="915.17" y="-15.4" font-family="sans-serif" font-size="14.00"> &#160;Providers</text>
<polygon fill="#fb8072" stroke="transparent" points="987.5,-10 987.5,-30 1007.5,-30 1007.5,-10 987.5,-10"/>
<text text-anchor="start" x="1011.23" y="-15.4" font-family="sans-serif" font-size="14.00"> &#160;Exports</text>
<g id="clust1" class="cluster">
<title>cluster_AppModule</title>
<polygon fill="none" stroke="black" stroke-dasharray="1,5" points="8,-70 8,-195 1651,-195 1651,-70 8,-70"/>
</g>
<g id="clust6" class="cluster">
<title>cluster_AppModule_providers</title>
<polygon fill="none" stroke="black" points="1513,-78 1513,-130 1643,-130 1643,-78 1513,-78"/>
</g>
<g id="clust3" class="cluster">
<title>cluster_AppModule_imports</title>
<polygon fill="none" stroke="black" points="16,-78 16,-130 1505,-130 1505,-78 16,-78"/>
</g>
<!-- AuthModule -->
<g id="node1" class="node">
<title>AuthModule</title>
<polygon fill="#8dd3c7" stroke="black" points="1496.55,-122 1493.55,-126 1472.55,-126 1469.55,-122 1409.45,-122 1409.45,-86 1496.55,-86 1496.55,-122"/>
<text text-anchor="middle" x="1453" y="-99.8" font-family="Times,serif" font-size="14.00">AuthModule</text>
</g>
<!-- AppModule -->
<g id="node13" class="node">
<title>AppModule</title>
<polygon fill="#8dd3c7" stroke="black" points="847.66,-187 844.66,-191 823.66,-191 820.66,-187 764.34,-187 764.34,-151 847.66,-151 847.66,-187"/>
<text text-anchor="middle" x="806" y="-164.8" font-family="Times,serif" font-size="14.00">AppModule</text>
</g>
<!-- AuthModule&#45;&gt;AppModule -->
<g id="edge1" class="edge">
<title>AuthModule&#45;&gt;AppModule</title>
<path fill="none" stroke="black" d="M1453,-122.04C1453,-143.66 1453,-177 1453,-177 1453,-177 857.95,-177 857.95,-177"/>
<polygon fill="black" stroke="black" points="857.95,-173.5 847.95,-177 857.95,-180.5 857.95,-173.5"/>
</g>
<!-- ConversationsModule -->
<g id="node2" class="node">
<title>ConversationsModule</title>
<polygon fill="#8dd3c7" stroke="black" points="1390.65,-122 1387.65,-126 1366.65,-126 1363.65,-122 1251.35,-122 1251.35,-86 1390.65,-86 1390.65,-122"/>
<text text-anchor="middle" x="1321" y="-99.8" font-family="Times,serif" font-size="14.00">ConversationsModule</text>
</g>
<!-- ConversationsModule&#45;&gt;AppModule -->
<g id="edge2" class="edge">
<title>ConversationsModule&#45;&gt;AppModule</title>
<path fill="none" stroke="black" d="M1321,-122.22C1321,-142.37 1321,-172 1321,-172 1321,-172 857.71,-172 857.71,-172"/>
<polygon fill="black" stroke="black" points="857.71,-168.5 847.71,-172 857.71,-175.5 857.71,-168.5"/>
</g>
<!-- CountriesModule -->
<g id="node3" class="node">
<title>CountriesModule</title>
<polygon fill="#8dd3c7" stroke="black" points="1232.99,-122 1229.99,-126 1208.99,-126 1205.99,-122 1119.01,-122 1119.01,-86 1232.99,-86 1232.99,-122"/>
<text text-anchor="middle" x="1176" y="-99.8" font-family="Times,serif" font-size="14.00">CountriesModule</text>
</g>
<!-- CountriesModule&#45;&gt;AppModule -->
<g id="edge3" class="edge">
<title>CountriesModule&#45;&gt;AppModule</title>
<path fill="none" stroke="black" d="M1176,-122.22C1176,-140.83 1176,-167 1176,-167 1176,-167 857.72,-167 857.72,-167"/>
<polygon fill="black" stroke="black" points="857.72,-163.5 847.72,-167 857.72,-170.5 857.72,-163.5"/>
</g>
<!-- DiscountsModule -->
<g id="node4" class="node">
<title>DiscountsModule</title>
<polygon fill="#8dd3c7" stroke="black" points="1100.54,-122 1097.54,-126 1076.54,-126 1073.54,-122 985.46,-122 985.46,-86 1100.54,-86 1100.54,-122"/>
<text text-anchor="middle" x="1043" y="-99.8" font-family="Times,serif" font-size="14.00">DiscountsModule</text>
</g>
<!-- DiscountsModule&#45;&gt;AppModule -->
<g id="edge4" class="edge">
<title>DiscountsModule&#45;&gt;AppModule</title>
<path fill="none" stroke="black" d="M1043,-122.03C1043,-139.06 1043,-162 1043,-162 1043,-162 857.83,-162 857.83,-162"/>
<polygon fill="black" stroke="black" points="857.83,-158.5 847.83,-162 857.83,-165.5 857.83,-158.5"/>
</g>
<!-- ListsModule -->
<g id="node5" class="node">
<title>ListsModule</title>
<polygon fill="#8dd3c7" stroke="black" points="967.27,-122 964.27,-126 943.27,-126 940.27,-122 880.73,-122 880.73,-86 967.27,-86 967.27,-122"/>
<text text-anchor="middle" x="924" y="-99.8" font-family="Times,serif" font-size="14.00">ListsModule</text>
</g>
<!-- ListsModule&#45;&gt;AppModule -->
<g id="edge5" class="edge">
<title>ListsModule&#45;&gt;AppModule</title>
<path fill="none" stroke="black" d="M924,-122.24C924,-137.57 924,-157 924,-157 924,-157 857.93,-157 857.93,-157"/>
<polygon fill="black" stroke="black" points="857.93,-153.5 847.93,-157 857.93,-160.5 857.93,-153.5"/>
</g>
<!-- PaymentsModule -->
<g id="node6" class="node">
<title>PaymentsModule</title>
<polygon fill="#8dd3c7" stroke="black" points="862.99,-122 859.99,-126 838.99,-126 835.99,-122 749.01,-122 749.01,-86 862.99,-86 862.99,-122"/>
<text text-anchor="middle" x="806" y="-99.8" font-family="Times,serif" font-size="14.00">PaymentsModule</text>
</g>
<!-- PaymentsModule&#45;&gt;AppModule -->
<g id="edge6" class="edge">
<title>PaymentsModule&#45;&gt;AppModule</title>
<path fill="none" stroke="black" d="M806,-122.11C806,-122.11 806,-140.99 806,-140.99"/>
<polygon fill="black" stroke="black" points="802.5,-140.99 806,-150.99 809.5,-140.99 802.5,-140.99"/>
</g>
<!-- PhotosModule -->
<g id="node7" class="node">
<title>PhotosModule</title>
<polygon fill="#8dd3c7" stroke="black" points="730.67,-122 727.67,-126 706.67,-126 703.67,-122 633.33,-122 633.33,-86 730.67,-86 730.67,-122"/>
<text text-anchor="middle" x="682" y="-99.8" font-family="Times,serif" font-size="14.00">PhotosModule</text>
</g>
<!-- PhotosModule&#45;&gt;AppModule -->
<g id="edge7" class="edge">
<title>PhotosModule&#45;&gt;AppModule</title>
<path fill="none" stroke="black" d="M682,-122.24C682,-137.57 682,-157 682,-157 682,-157 754.02,-157 754.02,-157"/>
<polygon fill="black" stroke="black" points="754.02,-160.5 764.02,-157 754.02,-153.5 754.02,-160.5"/>
</g>
<!-- ReservationsModule -->
<g id="node8" class="node">
<title>ReservationsModule</title>
<polygon fill="#8dd3c7" stroke="black" points="614.86,-122 611.86,-126 590.86,-126 587.86,-122 483.14,-122 483.14,-86 614.86,-86 614.86,-122"/>
<text text-anchor="middle" x="549" y="-99.8" font-family="Times,serif" font-size="14.00">ReservationsModule</text>
</g>
<!-- ReservationsModule&#45;&gt;AppModule -->
<g id="edge8" class="edge">
<title>ReservationsModule&#45;&gt;AppModule</title>
<path fill="none" stroke="black" d="M549,-122.03C549,-139.06 549,-162 549,-162 549,-162 754.14,-162 754.14,-162"/>
<polygon fill="black" stroke="black" points="754.14,-165.5 764.14,-162 754.14,-158.5 754.14,-165.5"/>
</g>
<!-- ReviewsModule -->
<g id="node9" class="node">
<title>ReviewsModule</title>
<polygon fill="#8dd3c7" stroke="black" points="464.76,-122 461.76,-126 440.76,-126 437.76,-122 357.24,-122 357.24,-86 464.76,-86 464.76,-122"/>
<text text-anchor="middle" x="411" y="-99.8" font-family="Times,serif" font-size="14.00">ReviewsModule</text>
</g>
<!-- ReviewsModule&#45;&gt;AppModule -->
<g id="edge9" class="edge">
<title>ReviewsModule&#45;&gt;AppModule</title>
<path fill="none" stroke="black" d="M411,-122.22C411,-140.83 411,-167 411,-167 411,-167 754.1,-167 754.1,-167"/>
<polygon fill="black" stroke="black" points="754.1,-170.5 764.1,-167 754.1,-163.5 754.1,-170.5"/>
</g>
<!-- RoomsModule -->
<g id="node10" class="node">
<title>RoomsModule</title>
<polygon fill="#8dd3c7" stroke="black" points="339.72,-122 336.72,-126 315.72,-126 312.72,-122 240.28,-122 240.28,-86 339.72,-86 339.72,-122"/>
<text text-anchor="middle" x="290" y="-99.8" font-family="Times,serif" font-size="14.00">RoomsModule</text>
</g>
<!-- RoomsModule&#45;&gt;AppModule -->
<g id="edge10" class="edge">
<title>RoomsModule&#45;&gt;AppModule</title>
<path fill="none" stroke="black" d="M290,-122.22C290,-142.37 290,-172 290,-172 290,-172 754.21,-172 754.21,-172"/>
<polygon fill="black" stroke="black" points="754.21,-175.5 764.21,-172 754.21,-168.5 754.21,-175.5"/>
</g>
<!-- TodoModule -->
<g id="node11" class="node">
<title>TodoModule</title>
<polygon fill="#8dd3c7" stroke="black" points="222.6,-122 219.6,-126 198.6,-126 195.6,-122 133.4,-122 133.4,-86 222.6,-86 222.6,-122"/>
<text text-anchor="middle" x="178" y="-99.8" font-family="Times,serif" font-size="14.00">TodoModule</text>
</g>
<!-- TodoModule&#45;&gt;AppModule -->
<g id="edge11" class="edge">
<title>TodoModule&#45;&gt;AppModule</title>
<path fill="none" stroke="black" d="M178,-122.04C178,-143.66 178,-177 178,-177 178,-177 754.31,-177 754.31,-177"/>
<polygon fill="black" stroke="black" points="754.31,-180.5 764.31,-177 754.31,-173.5 754.31,-180.5"/>
</g>
<!-- UsersModule -->
<g id="node12" class="node">
<title>UsersModule</title>
<polygon fill="#8dd3c7" stroke="black" points="115.92,-122 112.92,-126 91.92,-126 88.92,-122 24.08,-122 24.08,-86 115.92,-86 115.92,-122"/>
<text text-anchor="middle" x="70" y="-99.8" font-family="Times,serif" font-size="14.00">UsersModule</text>
</g>
<!-- UsersModule&#45;&gt;AppModule -->
<g id="edge12" class="edge">
<title>UsersModule&#45;&gt;AppModule</title>
<path fill="none" stroke="black" d="M70,-122.09C70,-145.13 70,-182 70,-182 70,-182 754.32,-182 754.32,-182"/>
<polygon fill="black" stroke="black" points="754.32,-185.5 764.32,-182 754.32,-178.5 754.32,-185.5"/>
</g>
<!-- AppService -->
<g id="node14" class="node">
<title>AppService</title>
<ellipse fill="#fdb462" stroke="black" cx="1578" cy="-104" rx="56.74" ry="18"/>
<text text-anchor="middle" x="1578" y="-99.8" font-family="Times,serif" font-size="14.00">AppService</text>
</g>
<!-- AppService&#45;&gt;AppModule -->
<g id="edge13" class="edge">
<title>AppService&#45;&gt;AppModule</title>
<path fill="none" stroke="black" d="M1578,-122.09C1578,-145.13 1578,-182 1578,-182 1578,-182 857.78,-182 857.78,-182"/>
<polygon fill="black" stroke="black" points="857.78,-178.5 847.78,-182 857.78,-185.5 857.78,-178.5"/>
</g>
</g>
</svg>
