<?xml version="1.0" encoding="UTF-8" standalone="no"?>
<!DOCTYPE svg PUBLIC "-//W3C//DTD SVG 1.1//EN"
 "http://www.w3.org/Graphics/SVG/1.1/DTD/svg11.dtd">
<!-- Generated by graphviz version 2.44.1 (20200629.0846)
 -->
<!-- Title: dependencies Pages: 1 -->
<svg width="504pt" height="211pt"
 viewBox="0.00 0.00 504.00 211.00" xmlns="http://www.w3.org/2000/svg" xmlns:xlink="http://www.w3.org/1999/xlink">
<g id="graph0" class="graph" transform="scale(1 1) rotate(0) translate(4 207)">
<title>dependencies</title>
<polygon fill="white" stroke="transparent" points="-4,4 -4,-207 500,-207 500,4 -4,4"/>
<text text-anchor="start" x="227.01" y="-42.4" font-family="sans-serif" font-weight="bold" font-size="14.00">Legend</text>
<polygon fill="#ffffb3" stroke="transparent" points="14,-10 14,-30 34,-30 34,-10 14,-10"/>
<text text-anchor="start" x="37.63" y="-15.4" font-family="sans-serif" font-size="14.00"> &#160;Declarations</text>
<polygon fill="#8dd3c7" stroke="transparent" points="127,-10 127,-30 147,-30 147,-10 127,-10"/>
<text text-anchor="start" x="150.73" y="-15.4" font-family="sans-serif" font-size="14.00"> &#160;Module</text>
<polygon fill="#80b1d3" stroke="transparent" points="213,-10 213,-30 233,-30 233,-10 213,-10"/>
<text text-anchor="start" x="236.78" y="-15.4" font-family="sans-serif" font-size="14.00"> &#160;Bootstrap</text>
<polygon fill="#fdb462" stroke="transparent" points="310,-10 310,-30 330,-30 330,-10 310,-10"/>
<text text-anchor="start" x="333.67" y="-15.4" font-family="sans-serif" font-size="14.00"> &#160;Providers</text>
<polygon fill="#fb8072" stroke="transparent" points="406,-10 406,-30 426,-30 426,-10 406,-10"/>
<text text-anchor="start" x="429.73" y="-15.4" font-family="sans-serif" font-size="14.00"> &#160;Exports</text>
<g id="clust1" class="cluster">
<title>cluster_AppModule</title>
<polygon fill="none" stroke="black" stroke-dasharray="1,5" points="63.5,-70 63.5,-195 432.5,-195 432.5,-70 63.5,-70"/>
</g>
<g id="clust6" class="cluster">
<title>cluster_AppModule_providers</title>
<polygon fill="none" stroke="black" points="294.5,-78 294.5,-130 424.5,-130 424.5,-78 294.5,-78"/>
</g>
<g id="clust3" class="cluster">
<title>cluster_AppModule_imports</title>
<polygon fill="none" stroke="black" points="71.5,-78 71.5,-130 286.5,-130 286.5,-78 71.5,-78"/>
</g>
<!-- TodoModule -->
<g id="node1" class="node">
<title>TodoModule</title>
<polygon fill="#8dd3c7" stroke="black" points="278.1,-122 275.1,-126 254.1,-126 251.1,-122 188.9,-122 188.9,-86 278.1,-86 278.1,-122"/>
<text text-anchor="middle" x="233.5" y="-99.8" font-family="Times,serif" font-size="14.00">TodoModule</text>
</g>
<!-- AppModule -->
<g id="node3" class="node">
<title>AppModule</title>
<polygon fill="#8dd3c7" stroke="black" points="275.16,-187 272.16,-191 251.16,-191 248.16,-187 191.84,-187 191.84,-151 275.16,-151 275.16,-187"/>
<text text-anchor="middle" x="233.5" y="-164.8" font-family="Times,serif" font-size="14.00">AppModule</text>
</g>
<!-- TodoModule&#45;&gt;AppModule -->
<g id="edge1" class="edge">
<title>TodoModule&#45;&gt;AppModule</title>
<path fill="none" stroke="black" d="M233.5,-122.11C233.5,-122.11 233.5,-140.99 233.5,-140.99"/>
<polygon fill="black" stroke="black" points="230,-140.99 233.5,-150.99 237,-140.99 230,-140.99"/>
</g>
<!-- UsersModule -->
<g id="node2" class="node">
<title>UsersModule</title>
<polygon fill="#8dd3c7" stroke="black" points="171.42,-122 168.42,-126 147.42,-126 144.42,-122 79.58,-122 79.58,-86 171.42,-86 171.42,-122"/>
<text text-anchor="middle" x="125.5" y="-99.8" font-family="Times,serif" font-size="14.00">UsersModule</text>
</g>
<!-- UsersModule&#45;&gt;AppModule -->
<g id="edge2" class="edge">
<title>UsersModule&#45;&gt;AppModule</title>
<path fill="none" stroke="black" d="M125.5,-122.11C125.5,-141.34 125.5,-169 125.5,-169 125.5,-169 181.74,-169 181.74,-169"/>
<polygon fill="black" stroke="black" points="181.74,-172.5 191.74,-169 181.74,-165.5 181.74,-172.5"/>
</g>
<!-- AppService -->
<g id="node4" class="node">
<title>AppService</title>
<ellipse fill="#fdb462" stroke="black" cx="359.5" cy="-104" rx="56.74" ry="18"/>
<text text-anchor="middle" x="359.5" y="-99.8" font-family="Times,serif" font-size="14.00">AppService</text>
</g>
<!-- AppService&#45;&gt;AppModule -->
<g id="edge3" class="edge">
<title>AppService&#45;&gt;AppModule</title>
<path fill="none" stroke="black" d="M359.5,-122.11C359.5,-141.34 359.5,-169 359.5,-169 359.5,-169 285.46,-169 285.46,-169"/>
<polygon fill="black" stroke="black" points="285.46,-165.5 275.46,-169 285.46,-172.5 285.46,-165.5"/>
</g>
</g>
</svg>
