<?xml version="1.0" encoding="UTF-8" standalone="no"?>
<!DOCTYPE svg PUBLIC "-//W3C//DTD SVG 1.1//EN"
 "http://www.w3.org/Graphics/SVG/1.1/DTD/svg11.dtd">
<!-- Generated by graphviz version 2.44.1 (20200629.0846)
 -->
<!-- Title: dependencies Pages: 1 -->
<svg width="504pt" height="287pt"
 viewBox="0.00 0.00 504.00 287.00" xmlns="http://www.w3.org/2000/svg" xmlns:xlink="http://www.w3.org/1999/xlink">
<g id="graph0" class="graph" transform="scale(1 1) rotate(0) translate(4 283)">
<title>dependencies</title>
<polygon fill="white" stroke="transparent" points="-4,4 -4,-283 500,-283 500,4 -4,4"/>
<text text-anchor="start" x="227.01" y="-42.4" font-family="sans-serif" font-weight="bold" font-size="14.00">Legend</text>
<polygon fill="#ffffb3" stroke="transparent" points="14,-10 14,-30 34,-30 34,-10 14,-10"/>
<text text-anchor="start" x="37.63" y="-15.4" font-family="sans-serif" font-size="14.00"> &#160;Declarations</text>
<polygon fill="#8dd3c7" stroke="transparent" points="127,-10 127,-30 147,-30 147,-10 127,-10"/>
<text text-anchor="start" x="150.73" y="-15.4" font-family="sans-serif" font-size="14.00"> &#160;Module</text>
<polygon fill="#80b1d3" stroke="transparent" points="213,-10 213,-30 233,-30 233,-10 213,-10"/>
<text text-anchor="start" x="236.78" y="-15.4" font-family="sans-serif" font-size="14.00"> &#160;Bootstrap</text>
<polygon fill="#fdb462" stroke="transparent" points="310,-10 310,-30 330,-30 330,-10 310,-10"/>
<text text-anchor="start" x="333.67" y="-15.4" font-family="sans-serif" font-size="14.00"> &#160;Providers</text>
<polygon fill="#fb8072" stroke="transparent" points="406,-10 406,-30 426,-30 426,-10 406,-10"/>
<text text-anchor="start" x="429.73" y="-15.4" font-family="sans-serif" font-size="14.00"> &#160;Exports</text>
<g id="clust1" class="cluster">
<title>cluster_AppModule</title>
<polygon fill="none" stroke="black" stroke-dasharray="1,5" points="42,-146 42,-271 411,-271 411,-146 42,-146"/>
</g>
<g id="clust3" class="cluster">
<title>cluster_AppModule_imports</title>
<polygon fill="none" stroke="black" points="188,-154 188,-206 403,-206 403,-154 188,-154"/>
</g>
<g id="clust6" class="cluster">
<title>cluster_AppModule_providers</title>
<polygon fill="none" stroke="black" points="50,-154 50,-206 180,-206 180,-154 50,-154"/>
</g>
<g id="clust7" class="cluster">
<title>cluster_TodoModule</title>
<polygon fill="none" stroke="black" stroke-dasharray="1,5" points="138,-70 138,-138 290,-138 290,-70 138,-70"/>
</g>
<g id="clust12" class="cluster">
<title>cluster_TodoModule_providers</title>
<polygon fill="none" stroke="black" points="146,-78 146,-130 282,-130 282,-78 146,-78"/>
</g>
<g id="clust13" class="cluster">
<title>cluster_UsersModule</title>
<polygon fill="none" stroke="black" stroke-dasharray="1,5" points="298,-70 298,-138 454,-138 454,-70 298,-70"/>
</g>
<g id="clust18" class="cluster">
<title>cluster_UsersModule_providers</title>
<polygon fill="none" stroke="black" points="306,-78 306,-130 446,-130 446,-78 306,-78"/>
</g>
<!-- TodoModule -->
<g id="node1" class="node">
<title>TodoModule</title>
<polygon fill="#8dd3c7" stroke="black" points="285.6,-198 282.6,-202 261.6,-202 258.6,-198 196.4,-198 196.4,-162 285.6,-162 285.6,-198"/>
<text text-anchor="middle" x="241" y="-175.8" font-family="Times,serif" font-size="14.00">TodoModule</text>
</g>
<!-- AppModule -->
<g id="node3" class="node">
<title>AppModule</title>
<polygon fill="#8dd3c7" stroke="black" points="282.66,-263 279.66,-267 258.66,-267 255.66,-263 199.34,-263 199.34,-227 282.66,-227 282.66,-263"/>
<text text-anchor="middle" x="241" y="-240.8" font-family="Times,serif" font-size="14.00">AppModule</text>
</g>
<!-- TodoModule&#45;&gt;AppModule -->
<g id="edge1" class="edge">
<title>TodoModule&#45;&gt;AppModule</title>
<path fill="none" stroke="black" d="M241,-198.11C241,-198.11 241,-216.99 241,-216.99"/>
<polygon fill="black" stroke="black" points="237.5,-216.99 241,-226.99 244.5,-216.99 237.5,-216.99"/>
</g>
<!-- UsersModule -->
<g id="node2" class="node">
<title>UsersModule</title>
<polygon fill="#8dd3c7" stroke="black" points="394.92,-198 391.92,-202 370.92,-202 367.92,-198 303.08,-198 303.08,-162 394.92,-162 394.92,-198"/>
<text text-anchor="middle" x="349" y="-175.8" font-family="Times,serif" font-size="14.00">UsersModule</text>
</g>
<!-- UsersModule&#45;&gt;AppModule -->
<g id="edge2" class="edge">
<title>UsersModule&#45;&gt;AppModule</title>
<path fill="none" stroke="black" d="M349,-198.11C349,-217.34 349,-245 349,-245 349,-245 292.76,-245 292.76,-245"/>
<polygon fill="black" stroke="black" points="292.76,-241.5 282.76,-245 292.76,-248.5 292.76,-241.5"/>
</g>
<!-- AppService -->
<g id="node4" class="node">
<title>AppService</title>
<ellipse fill="#fdb462" stroke="black" cx="115" cy="-180" rx="56.74" ry="18"/>
<text text-anchor="middle" x="115" y="-175.8" font-family="Times,serif" font-size="14.00">AppService</text>
</g>
<!-- AppService&#45;&gt;AppModule -->
<g id="edge3" class="edge">
<title>AppService&#45;&gt;AppModule</title>
<path fill="none" stroke="black" d="M115,-198.11C115,-217.34 115,-245 115,-245 115,-245 189.04,-245 189.04,-245"/>
<polygon fill="black" stroke="black" points="189.04,-248.5 199.04,-245 189.04,-241.5 189.04,-248.5"/>
</g>
<!-- TodoService -->
<g id="node5" class="node">
<title>TodoService</title>
<ellipse fill="#fdb462" stroke="black" cx="214" cy="-104" rx="60.25" ry="18"/>
<text text-anchor="middle" x="214" y="-99.8" font-family="Times,serif" font-size="14.00">TodoService</text>
</g>
<!-- TodoService&#45;&gt;TodoModule -->
<g id="edge4" class="edge">
<title>TodoService&#45;&gt;TodoModule</title>
<path fill="none" stroke="black" d="M235.41,-120.87C235.41,-120.87 235.41,-151.85 235.41,-151.85"/>
<polygon fill="black" stroke="black" points="231.91,-151.85 235.41,-161.85 238.91,-151.85 231.91,-151.85"/>
</g>
<!-- UsersService -->
<g id="node6" class="node">
<title>UsersService</title>
<ellipse fill="#fdb462" stroke="black" cx="376" cy="-104" rx="61.95" ry="18"/>
<text text-anchor="middle" x="376" y="-99.8" font-family="Times,serif" font-size="14.00">UsersService</text>
</g>
<!-- UsersService&#45;&gt;UsersModule -->
<g id="edge5" class="edge">
<title>UsersService&#45;&gt;UsersModule</title>
<path fill="none" stroke="black" d="M354.37,-121.25C354.37,-121.25 354.37,-151.76 354.37,-151.76"/>
<polygon fill="black" stroke="black" points="350.87,-151.76 354.37,-161.76 357.87,-151.76 350.87,-151.76"/>
</g>
</g>
</svg>
