<?xml version="1.0" encoding="UTF-8" standalone="no"?>
<!DOCTYPE svg PUBLIC "-//W3C//DTD SVG 1.1//EN"
 "http://www.w3.org/Graphics/SVG/1.1/DTD/svg11.dtd">
<!-- Generated by graphviz version 2.44.1 (20200629.0846)
 -->
<!-- Title: dependencies Pages: 1 -->
<svg width="2396pt" height="306pt"
 viewBox="0.00 0.00 2396.00 306.00" xmlns="http://www.w3.org/2000/svg" xmlns:xlink="http://www.w3.org/1999/xlink">
<g id="graph0" class="graph" transform="scale(1 1) rotate(0) translate(4 302)">
<title>dependencies</title>
<polygon fill="white" stroke="transparent" points="-4,4 -4,-302 2392,-302 2392,4 -4,4"/>
<text text-anchor="start" x="1173.01" y="-42.4" font-family="sans-serif" font-weight="bold" font-size="14.00">Legend</text>
<polygon fill="#ffffb3" stroke="transparent" points="960,-10 960,-30 980,-30 980,-10 960,-10"/>
<text text-anchor="start" x="983.63" y="-15.4" font-family="sans-serif" font-size="14.00"> &#160;Declarations</text>
<polygon fill="#8dd3c7" stroke="transparent" points="1073,-10 1073,-30 1093,-30 1093,-10 1073,-10"/>
<text text-anchor="start" x="1096.73" y="-15.4" font-family="sans-serif" font-size="14.00"> &#160;Module</text>
<polygon fill="#80b1d3" stroke="transparent" points="1159,-10 1159,-30 1179,-30 1179,-10 1159,-10"/>
<text text-anchor="start" x="1182.78" y="-15.4" font-family="sans-serif" font-size="14.00"> &#160;Bootstrap</text>
<polygon fill="#fdb462" stroke="transparent" points="1256,-10 1256,-30 1276,-30 1276,-10 1256,-10"/>
<text text-anchor="start" x="1279.67" y="-15.4" font-family="sans-serif" font-size="14.00"> &#160;Providers</text>
<polygon fill="#fb8072" stroke="transparent" points="1352,-10 1352,-30 1372,-30 1372,-10 1352,-10"/>
<text text-anchor="start" x="1375.73" y="-15.4" font-family="sans-serif" font-size="14.00"> &#160;Exports</text>
<g id="clust1" class="cluster">
<title>cluster_AppModule</title>
<polygon fill="none" stroke="black" stroke-dasharray="1,5" points="561,-146 561,-290 2098,-290 2098,-146 561,-146"/>
</g>
<g id="clust3" class="cluster">
<title>cluster_AppModule_imports</title>
<polygon fill="none" stroke="black" points="569,-154 569,-282 1952,-282 1952,-154 569,-154"/>
</g>
<g id="clust6" class="cluster">
<title>cluster_AppModule_providers</title>
<polygon fill="none" stroke="black" points="1960,-154 1960,-206 2090,-206 2090,-154 1960,-154"/>
</g>
<g id="clust7" class="cluster">
<title>cluster_AuthModule</title>
<polygon fill="none" stroke="black" stroke-dasharray="1,5" points="8,-146 8,-214 553,-214 553,-146 8,-146"/>
</g>
<g id="clust10" class="cluster">
<title>cluster_AuthModule_exports</title>
<polygon fill="none" stroke="black" points="439,-154 439,-206 545,-206 545,-154 439,-154"/>
</g>
<g id="clust12" class="cluster">
<title>cluster_AuthModule_providers</title>
<polygon fill="none" stroke="black" points="16,-154 16,-206 431,-206 431,-154 16,-154"/>
</g>
<g id="clust13" class="cluster">
<title>cluster_ConversationsModule</title>
<polygon fill="none" stroke="black" stroke-dasharray="1,5" points="256,-70 256,-138 478,-138 478,-70 256,-70"/>
</g>
<g id="clust18" class="cluster">
<title>cluster_ConversationsModule_providers</title>
<polygon fill="none" stroke="black" points="264,-78 264,-130 470,-130 470,-78 264,-78"/>
</g>
<g id="clust19" class="cluster">
<title>cluster_CountriesModule</title>
<polygon fill="none" stroke="black" stroke-dasharray="1,5" points="486,-70 486,-138 674,-138 674,-70 486,-70"/>
</g>
<g id="clust24" class="cluster">
<title>cluster_CountriesModule_providers</title>
<polygon fill="none" stroke="black" points="494,-78 494,-130 666,-130 666,-78 494,-78"/>
</g>
<g id="clust25" class="cluster">
<title>cluster_DiscountsModule</title>
<polygon fill="none" stroke="black" stroke-dasharray="1,5" points="682,-70 682,-138 872,-138 872,-70 682,-70"/>
</g>
<g id="clust30" class="cluster">
<title>cluster_DiscountsModule_providers</title>
<polygon fill="none" stroke="black" points="690,-78 690,-130 864,-130 864,-78 690,-78"/>
</g>
<g id="clust31" class="cluster">
<title>cluster_ListsModule</title>
<polygon fill="none" stroke="black" stroke-dasharray="1,5" points="880,-70 880,-138 1030,-138 1030,-70 880,-70"/>
</g>
<g id="clust36" class="cluster">
<title>cluster_ListsModule_providers</title>
<polygon fill="none" stroke="black" points="888,-78 888,-130 1022,-130 1022,-78 888,-78"/>
</g>
<g id="clust37" class="cluster">
<title>cluster_PaymentsModule</title>
<polygon fill="none" stroke="black" stroke-dasharray="1,5" points="1038,-70 1038,-138 1226,-138 1226,-70 1038,-70"/>
</g>
<g id="clust42" class="cluster">
<title>cluster_PaymentsModule_providers</title>
<polygon fill="none" stroke="black" points="1046,-78 1046,-130 1218,-130 1218,-78 1046,-78"/>
</g>
<g id="clust43" class="cluster">
<title>cluster_PhotosModule</title>
<polygon fill="none" stroke="black" stroke-dasharray="1,5" points="1234,-70 1234,-138 1398,-138 1398,-70 1234,-70"/>
</g>
<g id="clust48" class="cluster">
<title>cluster_PhotosModule_providers</title>
<polygon fill="none" stroke="black" points="1242,-78 1242,-130 1390,-130 1390,-78 1242,-78"/>
</g>
<g id="clust49" class="cluster">
<title>cluster_ReservationsModule</title>
<polygon fill="none" stroke="black" stroke-dasharray="1,5" points="1406,-70 1406,-138 1618,-138 1618,-70 1406,-70"/>
</g>
<g id="clust54" class="cluster">
<title>cluster_ReservationsModule_providers</title>
<polygon fill="none" stroke="black" points="1414,-78 1414,-130 1610,-130 1610,-78 1414,-78"/>
</g>
<g id="clust55" class="cluster">
<title>cluster_ReviewsModule</title>
<polygon fill="none" stroke="black" stroke-dasharray="1,5" points="1626,-70 1626,-138 1804,-138 1804,-70 1626,-70"/>
</g>
<g id="clust60" class="cluster">
<title>cluster_ReviewsModule_providers</title>
<polygon fill="none" stroke="black" points="1634,-78 1634,-130 1796,-130 1796,-78 1634,-78"/>
</g>
<g id="clust61" class="cluster">
<title>cluster_RoomsModule</title>
<polygon fill="none" stroke="black" stroke-dasharray="1,5" points="1812,-70 1812,-138 1978,-138 1978,-70 1812,-70"/>
</g>
<g id="clust66" class="cluster">
<title>cluster_RoomsModule_providers</title>
<polygon fill="none" stroke="black" points="1820,-78 1820,-130 1970,-130 1970,-78 1820,-78"/>
</g>
<g id="clust67" class="cluster">
<title>cluster_TodoModule</title>
<polygon fill="none" stroke="black" stroke-dasharray="1,5" points="1986,-70 1986,-138 2138,-138 2138,-70 1986,-70"/>
</g>
<g id="clust72" class="cluster">
<title>cluster_TodoModule_providers</title>
<polygon fill="none" stroke="black" points="1994,-78 1994,-130 2130,-130 2130,-78 1994,-78"/>
</g>
<g id="clust73" class="cluster">
<title>cluster_UsersModule</title>
<polygon fill="none" stroke="black" stroke-dasharray="1,5" points="2106,-222 2106,-290 2380,-290 2380,-222 2106,-222"/>
</g>
<g id="clust76" class="cluster">
<title>cluster_UsersModule_exports</title>
<polygon fill="none" stroke="black" points="2262,-230 2262,-282 2372,-282 2372,-230 2262,-230"/>
</g>
<g id="clust78" class="cluster">
<title>cluster_UsersModule_providers</title>
<polygon fill="none" stroke="black" points="2114,-230 2114,-282 2254,-282 2254,-230 2114,-230"/>
</g>
<!-- AuthModule -->
<g id="node1" class="node">
<title>AuthModule</title>
<polygon fill="#8dd3c7" stroke="black" points="664.55,-274 661.55,-278 640.55,-278 637.55,-274 577.45,-274 577.45,-238 664.55,-238 664.55,-274"/>
<text text-anchor="middle" x="621" y="-251.8" font-family="Times,serif" font-size="14.00">AuthModule</text>
</g>
<!-- AppModule -->
<g id="node13" class="node">
<title>AppModule</title>
<polygon fill="#8dd3c7" stroke="black" points="2043.66,-274 2040.66,-278 2019.66,-278 2016.66,-274 1960.34,-274 1960.34,-238 2043.66,-238 2043.66,-274"/>
<text text-anchor="middle" x="2002" y="-251.8" font-family="Times,serif" font-size="14.00">AppModule</text>
</g>
<!-- AuthModule&#45;&gt;AppModule -->
<g id="edge1" class="edge">
<title>AuthModule&#45;&gt;AppModule</title>
<path fill="none" stroke="black" d="M664.61,-272C664.61,-272 1950.08,-272 1950.08,-272"/>
<polygon fill="black" stroke="black" points="1950.08,-275.5 1960.08,-272 1950.08,-268.5 1950.08,-275.5"/>
</g>
<!-- AuthService  -->
<g id="node15" class="node">
<title>AuthService </title>
<polygon fill="#fb8072" stroke="black" points="536.98,-198 447.02,-198 447.02,-162 536.98,-162 536.98,-198"/>
<text text-anchor="middle" x="492" y="-175.8" font-family="Times,serif" font-size="14.00">AuthService </text>
</g>
<!-- AuthModule&#45;&gt;AuthService  -->
<g id="edge15" class="edge">
<title>AuthModule&#45;&gt;AuthService </title>
<path fill="none" stroke="black" stroke-dasharray="5,2" d="M577.33,-246C539.9,-246 492,-246 492,-246 492,-246 492,-208.03 492,-208.03"/>
<polygon fill="black" stroke="black" points="495.5,-208.03 492,-198.03 488.5,-208.03 495.5,-208.03"/>
</g>
<!-- ConversationsModule -->
<g id="node2" class="node">
<title>ConversationsModule</title>
<polygon fill="#8dd3c7" stroke="black" points="716.65,-198 713.65,-202 692.65,-202 689.65,-198 577.35,-198 577.35,-162 716.65,-162 716.65,-198"/>
<text text-anchor="middle" x="647" y="-175.8" font-family="Times,serif" font-size="14.00">ConversationsModule</text>
</g>
<!-- ConversationsModule&#45;&gt;AppModule -->
<g id="edge2" class="edge">
<title>ConversationsModule&#45;&gt;AppModule</title>
<path fill="none" stroke="black" d="M690.8,-198.01C690.8,-224.02 690.8,-269 690.8,-269 690.8,-269 1950.23,-269 1950.23,-269"/>
<polygon fill="black" stroke="black" points="1950.23,-272.5 1960.23,-269 1950.23,-265.5 1950.23,-272.5"/>
</g>
<!-- CountriesModule -->
<g id="node3" class="node">
<title>CountriesModule</title>
<polygon fill="#8dd3c7" stroke="black" points="848.99,-198 845.99,-202 824.99,-202 821.99,-198 735.01,-198 735.01,-162 848.99,-162 848.99,-198"/>
<text text-anchor="middle" x="792" y="-175.8" font-family="Times,serif" font-size="14.00">CountriesModule</text>
</g>
<!-- CountriesModule&#45;&gt;AppModule -->
<g id="edge3" class="edge">
<title>CountriesModule&#45;&gt;AppModule</title>
<path fill="none" stroke="black" d="M792,-198.03C792,-223.51 792,-267 792,-267 792,-267 1950,-267 1950,-267"/>
<polygon fill="black" stroke="black" points="1950,-270.5 1960,-267 1950,-263.5 1950,-270.5"/>
</g>
<!-- DiscountsModule -->
<g id="node4" class="node">
<title>DiscountsModule</title>
<polygon fill="#8dd3c7" stroke="black" points="982.54,-198 979.54,-202 958.54,-202 955.54,-198 867.46,-198 867.46,-162 982.54,-162 982.54,-198"/>
<text text-anchor="middle" x="925" y="-175.8" font-family="Times,serif" font-size="14.00">DiscountsModule</text>
</g>
<!-- DiscountsModule&#45;&gt;AppModule -->
<g id="edge4" class="edge">
<title>DiscountsModule&#45;&gt;AppModule</title>
<path fill="none" stroke="black" d="M925,-198.23C925,-222.93 925,-264 925,-264 925,-264 1950.11,-264 1950.11,-264"/>
<polygon fill="black" stroke="black" points="1950.11,-267.5 1960.11,-264 1950.11,-260.5 1950.11,-267.5"/>
</g>
<!-- ListsModule -->
<g id="node5" class="node">
<title>ListsModule</title>
<polygon fill="#8dd3c7" stroke="black" points="1087.27,-198 1084.27,-202 1063.27,-202 1060.27,-198 1000.73,-198 1000.73,-162 1087.27,-162 1087.27,-198"/>
<text text-anchor="middle" x="1044" y="-175.8" font-family="Times,serif" font-size="14.00">ListsModule</text>
</g>
<!-- ListsModule&#45;&gt;AppModule -->
<g id="edge5" class="edge">
<title>ListsModule&#45;&gt;AppModule</title>
<path fill="none" stroke="black" d="M1044,-198.2C1044,-222.36 1044,-262 1044,-262 1044,-262 1950.22,-262 1950.22,-262"/>
<polygon fill="black" stroke="black" points="1950.22,-265.5 1960.22,-262 1950.22,-258.5 1950.22,-265.5"/>
</g>
<!-- PaymentsModule -->
<g id="node6" class="node">
<title>PaymentsModule</title>
<polygon fill="#8dd3c7" stroke="black" points="1218.99,-198 1215.99,-202 1194.99,-202 1191.99,-198 1105.01,-198 1105.01,-162 1218.99,-162 1218.99,-198"/>
<text text-anchor="middle" x="1162" y="-175.8" font-family="Times,serif" font-size="14.00">PaymentsModule</text>
</g>
<!-- PaymentsModule&#45;&gt;AppModule -->
<g id="edge6" class="edge">
<title>PaymentsModule&#45;&gt;AppModule</title>
<path fill="none" stroke="black" d="M1162,-198.32C1162,-221.66 1162,-259 1162,-259 1162,-259 1950.06,-259 1950.06,-259"/>
<polygon fill="black" stroke="black" points="1950.06,-262.5 1960.06,-259 1950.06,-255.5 1950.06,-262.5"/>
</g>
<!-- PhotosModule -->
<g id="node7" class="node">
<title>PhotosModule</title>
<polygon fill="#8dd3c7" stroke="black" points="1334.67,-198 1331.67,-202 1310.67,-202 1307.67,-198 1237.33,-198 1237.33,-162 1334.67,-162 1334.67,-198"/>
<text text-anchor="middle" x="1286" y="-175.8" font-family="Times,serif" font-size="14.00">PhotosModule</text>
</g>
<!-- PhotosModule&#45;&gt;AppModule -->
<g id="edge7" class="edge">
<title>PhotosModule&#45;&gt;AppModule</title>
<path fill="none" stroke="black" d="M1286,-198.01C1286,-220.49 1286,-256 1286,-256 1286,-256 1950.15,-256 1950.15,-256"/>
<polygon fill="black" stroke="black" points="1950.15,-259.5 1960.15,-256 1950.15,-252.5 1950.15,-259.5"/>
</g>
<!-- ReservationsModule -->
<g id="node8" class="node">
<title>ReservationsModule</title>
<polygon fill="#8dd3c7" stroke="black" points="1484.86,-198 1481.86,-202 1460.86,-202 1457.86,-198 1353.14,-198 1353.14,-162 1484.86,-162 1484.86,-198"/>
<text text-anchor="middle" x="1419" y="-175.8" font-family="Times,serif" font-size="14.00">ReservationsModule</text>
</g>
<!-- ReservationsModule&#45;&gt;AppModule -->
<g id="edge8" class="edge">
<title>ReservationsModule&#45;&gt;AppModule</title>
<path fill="none" stroke="black" d="M1419,-198.29C1419,-220.21 1419,-254 1419,-254 1419,-254 1950.07,-254 1950.07,-254"/>
<polygon fill="black" stroke="black" points="1950.07,-257.5 1960.07,-254 1950.07,-250.5 1950.07,-257.5"/>
</g>
<!-- ReviewsModule -->
<g id="node9" class="node">
<title>ReviewsModule</title>
<polygon fill="#8dd3c7" stroke="black" points="1610.76,-198 1607.76,-202 1586.76,-202 1583.76,-198 1503.24,-198 1503.24,-162 1610.76,-162 1610.76,-198"/>
<text text-anchor="middle" x="1557" y="-175.8" font-family="Times,serif" font-size="14.00">ReviewsModule</text>
</g>
<!-- ReviewsModule&#45;&gt;AppModule -->
<g id="edge9" class="edge">
<title>ReviewsModule&#45;&gt;AppModule</title>
<path fill="none" stroke="black" d="M1557,-198.28C1557,-219.32 1557,-251 1557,-251 1557,-251 1950.14,-251 1950.14,-251"/>
<polygon fill="black" stroke="black" points="1950.14,-254.5 1960.14,-251 1950.14,-247.5 1950.14,-254.5"/>
</g>
<!-- RoomsModule -->
<g id="node10" class="node">
<title>RoomsModule</title>
<polygon fill="#8dd3c7" stroke="black" points="1727.72,-198 1724.72,-202 1703.72,-202 1700.72,-198 1628.28,-198 1628.28,-162 1727.72,-162 1727.72,-198"/>
<text text-anchor="middle" x="1678" y="-175.8" font-family="Times,serif" font-size="14.00">RoomsModule</text>
</g>
<!-- RoomsModule&#45;&gt;AppModule -->
<g id="edge10" class="edge">
<title>RoomsModule&#45;&gt;AppModule</title>
<path fill="none" stroke="black" d="M1678,-198.13C1678,-218.57 1678,-249 1678,-249 1678,-249 1950.31,-249 1950.31,-249"/>
<polygon fill="black" stroke="black" points="1950.31,-252.5 1960.31,-249 1950.31,-245.5 1950.31,-252.5"/>
</g>
<!-- TodoModule -->
<g id="node11" class="node">
<title>TodoModule</title>
<polygon fill="#8dd3c7" stroke="black" points="1834.6,-198 1831.6,-202 1810.6,-202 1807.6,-198 1745.4,-198 1745.4,-162 1834.6,-162 1834.6,-198"/>
<text text-anchor="middle" x="1790" y="-175.8" font-family="Times,serif" font-size="14.00">TodoModule</text>
</g>
<!-- TodoModule&#45;&gt;AppModule -->
<g id="edge11" class="edge">
<title>TodoModule&#45;&gt;AppModule</title>
<path fill="none" stroke="black" d="M1790,-198.03C1790,-217.58 1790,-246 1790,-246 1790,-246 1950.12,-246 1950.12,-246"/>
<polygon fill="black" stroke="black" points="1950.12,-249.5 1960.12,-246 1950.12,-242.5 1950.12,-249.5"/>
</g>
<!-- UsersModule -->
<g id="node12" class="node">
<title>UsersModule</title>
<polygon fill="#8dd3c7" stroke="black" points="1943.92,-198 1940.92,-202 1919.92,-202 1916.92,-198 1852.08,-198 1852.08,-162 1943.92,-162 1943.92,-198"/>
<text text-anchor="middle" x="1898" y="-175.8" font-family="Times,serif" font-size="14.00">UsersModule</text>
</g>
<!-- UsersModule&#45;&gt;AuthModule -->
<g id="edge14" class="edge">
<title>UsersModule&#45;&gt;AuthModule</title>
<path fill="none" stroke="black" d="M1870.57,-198.3C1870.57,-216.27 1870.57,-241 1870.57,-241 1870.57,-241 674.74,-241 674.74,-241"/>
<polygon fill="black" stroke="black" points="674.74,-237.5 664.74,-241 674.74,-244.5 674.74,-237.5"/>
</g>
<!-- UsersModule&#45;&gt;AppModule -->
<g id="edge12" class="edge">
<title>UsersModule&#45;&gt;AppModule</title>
<path fill="none" stroke="black" d="M1925.43,-198.17C1925.43,-217.09 1925.43,-244 1925.43,-244 1925.43,-244 1950.13,-244 1950.13,-244"/>
<polygon fill="black" stroke="black" points="1950.13,-247.5 1960.13,-244 1950.13,-240.5 1950.13,-247.5"/>
</g>
<!-- UsersService  -->
<g id="node29" class="node">
<title>UsersService </title>
<polygon fill="#fb8072" stroke="black" points="2363.85,-274 2270.15,-274 2270.15,-238 2363.85,-238 2363.85,-274"/>
<text text-anchor="middle" x="2317" y="-251.8" font-family="Times,serif" font-size="14.00">UsersService </text>
</g>
<!-- UsersModule&#45;&gt;UsersService  -->
<g id="edge29" class="edge">
<title>UsersModule&#45;&gt;UsersService </title>
<path fill="none" stroke="black" stroke-dasharray="5,2" d="M1888.86,-198.24C1888.86,-205.43 1888.86,-212 1888.86,-212 1888.86,-212 2317,-212 2317,-212 2317,-212 2317,-227.85 2317,-227.85"/>
<polygon fill="black" stroke="black" points="2313.5,-227.85 2317,-237.85 2320.5,-227.85 2313.5,-227.85"/>
</g>
<!-- AppService -->
<g id="node14" class="node">
<title>AppService</title>
<ellipse fill="#fdb462" stroke="black" cx="2025" cy="-180" rx="56.74" ry="18"/>
<text text-anchor="middle" x="2025" y="-175.8" font-family="Times,serif" font-size="14.00">AppService</text>
</g>
<!-- AppService&#45;&gt;AppModule -->
<g id="edge13" class="edge">
<title>AppService&#45;&gt;AppModule</title>
<path fill="none" stroke="black" d="M2006.1,-197.25C2006.1,-197.25 2006.1,-227.76 2006.1,-227.76"/>
<polygon fill="black" stroke="black" points="2002.6,-227.76 2006.1,-237.76 2009.6,-227.76 2002.6,-227.76"/>
</g>
<!-- AuthService -->
<g id="node16" class="node">
<title>AuthService</title>
<ellipse fill="#fdb462" stroke="black" cx="83" cy="-180" rx="59.11" ry="18"/>
<text text-anchor="middle" x="83" y="-175.8" font-family="Times,serif" font-size="14.00">AuthService</text>
</g>
<!-- AuthService&#45;&gt;AuthModule -->
<g id="edge16" class="edge">
<title>AuthService&#45;&gt;AuthModule</title>
<path fill="none" stroke="black" d="M83,-198.03C83,-223.51 83,-267 83,-267 83,-267 567.43,-267 567.43,-267"/>
<polygon fill="black" stroke="black" points="567.43,-270.5 577.43,-267 567.43,-263.5 567.43,-270.5"/>
</g>
<!-- JwtStrategy -->
<g id="node17" class="node">
<title>JwtStrategy</title>
<ellipse fill="#fdb462" stroke="black" cx="366" cy="-180" rx="56.76" ry="18"/>
<text text-anchor="middle" x="366" y="-175.8" font-family="Times,serif" font-size="14.00">JwtStrategy</text>
</g>
<!-- JwtStrategy&#45;&gt;AuthModule -->
<g id="edge17" class="edge">
<title>JwtStrategy&#45;&gt;AuthModule</title>
<path fill="none" stroke="black" d="M366,-198.04C366,-219.66 366,-253 366,-253 366,-253 567.16,-253 567.16,-253"/>
<polygon fill="black" stroke="black" points="567.16,-256.5 577.16,-253 567.16,-249.5 567.16,-256.5"/>
</g>
<!-- LocalStrategy -->
<g id="node18" class="node">
<title>LocalStrategy</title>
<ellipse fill="#fdb462" stroke="black" cx="226" cy="-180" rx="65.41" ry="18"/>
<text text-anchor="middle" x="226" y="-175.8" font-family="Times,serif" font-size="14.00">LocalStrategy</text>
</g>
<!-- LocalStrategy&#45;&gt;AuthModule -->
<g id="edge18" class="edge">
<title>LocalStrategy&#45;&gt;AuthModule</title>
<path fill="none" stroke="black" d="M226,-198.15C226,-221.76 226,-260 226,-260 226,-260 567.22,-260 567.22,-260"/>
<polygon fill="black" stroke="black" points="567.22,-263.5 577.22,-260 567.22,-256.5 567.22,-263.5"/>
</g>
<!-- ConversationsService -->
<g id="node19" class="node">
<title>ConversationsService</title>
<ellipse fill="#fdb462" stroke="black" cx="367" cy="-104" rx="95.48" ry="18"/>
<text text-anchor="middle" x="367" y="-99.8" font-family="Times,serif" font-size="14.00">ConversationsService</text>
</g>
<!-- ConversationsService&#45;&gt;ConversationsModule -->
<g id="edge19" class="edge">
<title>ConversationsService&#45;&gt;ConversationsModule</title>
<path fill="none" stroke="black" d="M454.75,-111.38C454.75,-125.29 454.75,-154 454.75,-154 454.75,-154 603.97,-154 603.97,-154 603.97,-154 603.97,-154.79 603.97,-154.79"/>
<polygon fill="black" stroke="black" points="600.47,-151.94 603.97,-161.94 607.47,-151.94 600.47,-151.94"/>
</g>
<!-- CountriesService -->
<g id="node20" class="node">
<title>CountriesService</title>
<ellipse fill="#fdb462" stroke="black" cx="580" cy="-104" rx="77.58" ry="18"/>
<text text-anchor="middle" x="580" y="-99.8" font-family="Times,serif" font-size="14.00">CountriesService</text>
</g>
<!-- CountriesService&#45;&gt;CountriesModule -->
<g id="edge20" class="edge">
<title>CountriesService&#45;&gt;CountriesModule</title>
<path fill="none" stroke="black" d="M630.75,-117.75C630.75,-130 630.75,-146 630.75,-146 630.75,-146 792,-146 792,-146 792,-146 792,-151.81 792,-151.81"/>
<polygon fill="black" stroke="black" points="788.5,-151.81 792,-161.81 795.5,-151.81 788.5,-151.81"/>
</g>
<!-- DiscountsService -->
<g id="node21" class="node">
<title>DiscountsService</title>
<ellipse fill="#fdb462" stroke="black" cx="777" cy="-104" rx="78.73" ry="18"/>
<text text-anchor="middle" x="777" y="-99.8" font-family="Times,serif" font-size="14.00">DiscountsService</text>
</g>
<!-- DiscountsService&#45;&gt;DiscountsModule -->
<g id="edge21" class="edge">
<title>DiscountsService&#45;&gt;DiscountsModule</title>
<path fill="none" stroke="black" d="M855.84,-104C870.72,-104 881.73,-104 881.73,-104 881.73,-104 881.73,-151.99 881.73,-151.99"/>
<polygon fill="black" stroke="black" points="878.23,-151.99 881.73,-161.99 885.23,-151.99 878.23,-151.99"/>
</g>
<!-- ListsService -->
<g id="node22" class="node">
<title>ListsService</title>
<ellipse fill="#fdb462" stroke="black" cx="955" cy="-104" rx="58.54" ry="18"/>
<text text-anchor="middle" x="955" y="-99.8" font-family="Times,serif" font-size="14.00">ListsService</text>
</g>
<!-- ListsService&#45;&gt;ListsModule -->
<g id="edge22" class="edge">
<title>ListsService&#45;&gt;ListsModule</title>
<path fill="none" stroke="black" d="M1007.19,-112.42C1007.19,-112.42 1007.19,-151.73 1007.19,-151.73"/>
<polygon fill="black" stroke="black" points="1003.69,-151.73 1007.19,-161.73 1010.69,-151.73 1003.69,-151.73"/>
</g>
<!-- PaymentsService -->
<g id="node23" class="node">
<title>PaymentsService</title>
<ellipse fill="#fdb462" stroke="black" cx="1132" cy="-104" rx="77.58" ry="18"/>
<text text-anchor="middle" x="1132" y="-99.8" font-family="Times,serif" font-size="14.00">PaymentsService</text>
</g>
<!-- PaymentsService&#45;&gt;PaymentsModule -->
<g id="edge23" class="edge">
<title>PaymentsService&#45;&gt;PaymentsModule</title>
<path fill="none" stroke="black" d="M1157.27,-121.25C1157.27,-121.25 1157.27,-151.76 1157.27,-151.76"/>
<polygon fill="black" stroke="black" points="1153.77,-151.76 1157.27,-161.76 1160.77,-151.76 1153.77,-151.76"/>
</g>
<!-- PhotosService -->
<g id="node24" class="node">
<title>PhotosService</title>
<ellipse fill="#fdb462" stroke="black" cx="1316" cy="-104" rx="66.07" ry="18"/>
<text text-anchor="middle" x="1316" y="-99.8" font-family="Times,serif" font-size="14.00">PhotosService</text>
</g>
<!-- PhotosService&#45;&gt;PhotosModule -->
<g id="edge24" class="edge">
<title>PhotosService&#45;&gt;PhotosModule</title>
<path fill="none" stroke="black" d="M1292.27,-120.87C1292.27,-120.87 1292.27,-151.85 1292.27,-151.85"/>
<polygon fill="black" stroke="black" points="1288.77,-151.85 1292.27,-161.85 1295.77,-151.85 1288.77,-151.85"/>
</g>
<!-- ReservationsService -->
<g id="node25" class="node">
<title>ReservationsService</title>
<ellipse fill="#fdb462" stroke="black" cx="1512" cy="-104" rx="89.74" ry="18"/>
<text text-anchor="middle" x="1512" y="-99.8" font-family="Times,serif" font-size="14.00">ReservationsService</text>
</g>
<!-- ReservationsService&#45;&gt;ReservationsModule -->
<g id="edge25" class="edge">
<title>ReservationsService&#45;&gt;ReservationsModule</title>
<path fill="none" stroke="black" d="M1453.53,-117.94C1453.53,-117.94 1453.53,-151.84 1453.53,-151.84"/>
<polygon fill="black" stroke="black" points="1450.03,-151.84 1453.53,-161.84 1457.03,-151.84 1450.03,-151.84"/>
</g>
<!-- ReviewsService -->
<g id="node26" class="node">
<title>ReviewsService</title>
<ellipse fill="#fdb462" stroke="black" cx="1715" cy="-104" rx="73.49" ry="18"/>
<text text-anchor="middle" x="1715" y="-99.8" font-family="Times,serif" font-size="14.00">ReviewsService</text>
</g>
<!-- ReviewsService&#45;&gt;ReviewsModule -->
<g id="edge26" class="edge">
<title>ReviewsService&#45;&gt;ReviewsModule</title>
<path fill="none" stroke="black" d="M1641.64,-104C1622.13,-104 1606.37,-104 1606.37,-104 1606.37,-104 1606.37,-151.99 1606.37,-151.99"/>
<polygon fill="black" stroke="black" points="1602.87,-151.99 1606.37,-161.99 1609.87,-151.99 1602.87,-151.99"/>
</g>
<!-- RoomsService -->
<g id="node27" class="node">
<title>RoomsService</title>
<ellipse fill="#fdb462" stroke="black" cx="1895" cy="-104" rx="67.21" ry="18"/>
<text text-anchor="middle" x="1895" y="-99.8" font-family="Times,serif" font-size="14.00">RoomsService</text>
</g>
<!-- RoomsService&#45;&gt;RoomsModule -->
<g id="edge27" class="edge">
<title>RoomsService&#45;&gt;RoomsModule</title>
<path fill="none" stroke="black" d="M1843.42,-115.78C1843.42,-122.66 1843.42,-130 1843.42,-130 1843.42,-130 1684.68,-130 1684.68,-130 1684.68,-130 1684.68,-151.95 1684.68,-151.95"/>
<polygon fill="black" stroke="black" points="1681.18,-151.95 1684.68,-161.95 1688.18,-151.95 1681.18,-151.95"/>
</g>
<!-- TodoService -->
<g id="node28" class="node">
<title>TodoService</title>
<ellipse fill="#fdb462" stroke="black" cx="2062" cy="-104" rx="60.25" ry="18"/>
<text text-anchor="middle" x="2062" y="-99.8" font-family="Times,serif" font-size="14.00">TodoService</text>
</g>
<!-- TodoService&#45;&gt;TodoModule -->
<g id="edge28" class="edge">
<title>TodoService&#45;&gt;TodoModule</title>
<path fill="none" stroke="black" d="M2041.62,-121C2041.62,-129.5 2041.62,-138 2041.62,-138 2041.62,-138 1807.94,-138 1807.94,-138 1807.94,-138 1807.94,-151.94 1807.94,-151.94"/>
<polygon fill="black" stroke="black" points="1804.44,-151.94 1807.94,-161.94 1811.44,-151.94 1804.44,-151.94"/>
</g>
<!-- UsersService -->
<g id="node30" class="node">
<title>UsersService</title>
<ellipse fill="#fdb462" stroke="black" cx="2184" cy="-256" rx="61.95" ry="18"/>
<text text-anchor="middle" x="2184" y="-251.8" font-family="Times,serif" font-size="14.00">UsersService</text>
</g>
<!-- UsersService&#45;&gt;UsersModule -->
<g id="edge30" class="edge">
<title>UsersService&#45;&gt;UsersModule</title>
<path fill="none" stroke="black" d="M2184.18,-237.97C2184.18,-231.15 2184.18,-225 2184.18,-225 2184.18,-225 1907.14,-225 1907.14,-225 1907.14,-225 1907.14,-208.04 1907.14,-208.04"/>
<polygon fill="black" stroke="black" points="1910.64,-208.04 1907.14,-198.04 1903.64,-208.04 1910.64,-208.04"/>
</g>
</g>
</svg>
